 <svg  version="1.0" xmlns="http://www.w3.org/2000/svg"  width="60px" height="60px" viewBox="0 0 678.000000 654.000000"  preserveAspectRatio="xMidYMid meet">  <g transform="translate(0.000000,654.000000) scale(0.100000,-0.100000)" fill="#64b745" stroke="none"> <path d="M6344 6475 c-10 -8 -29 -15 -40 -15 -12 0 -27 -7 -34 -15 -7 -8 -21 -15 -30 -15 -10 0 -31 -6 -47 -14 -51 -25 -98 -45 -120 -51 -13 -3 -23 -11 -23 -16 0 -5 -11 -9 -24 -9 -13 0 -29 -7 -36 -15 -7 -8 -19 -15 -27 -15 -8 0 -27 -6 -41 -13 -15 -8 -42 -21 -60 -30 -19 -9 -39 -17 -47 -17 -7 0 -18 -7 -25 -15 -7 -8 -20 -15 -30 -15 -10 0 -23 -7 -30 -15 -7 -8 -20 -15 -30 -15 -10 0 -23 -7 -30 -15 -7 -8 -21 -15 -31 -15 -9 0 -24 -7 -33 -15 -8 -8 -21 -15 -29 -15 -8 0 -20 -7 -27 -15 -7 -8 -19 -15 -26 -15 -16 0 -92 -39 -100 -51 -3 -5 -11 -9 -19 -9 -8 0 -34 -13 -58 -30 -25 -16 -52 -30 -60 -30 -9 0 -19 -5 -22 -11 -4 -5 -17 -14 -28 -20 -12 -5 -30 -13 -39 -19 -10 -5 -26 -15 -35 -20 -10 -6 -27 -15 -38 -20 -11 -6 -33 -19 -50 -30 -16 -11 -39 -24 -50 -30 -11 -6 -33 -19 -50 -30 -16 -11 -42 -25 -57 -31 -16 -6 -28 -14 -28 -19 0 -4 -8 -11 -17 -14 -18 -6 -25 -11 -98 -57 -22 -14 -48 -28 -57 -32 -10 -3 -18 -11 -18 -17 0 -5 -6 -10 -13 -10 -8 0 -32 -13 -53 -28 -21 -16 -46 -31 -54 -35 -8 -4 -28 -16 -45 -27 -16 -11 -40 -24 -52 -30 -13 -5 -23 -14 -23 -19 0 -5 -8 -11 -17 -15 -21 -7 -53 -27 -68 -42 -5 -6 -30 -26 -55 -44 -25 -18 -49 -39 -55 -45 -5 -6 -48 -40 -95 -75 -47 -35 -101 -77 -121 -94 -20 -17 -51 -42 -70 -56 -18 -14 -40 -32 -49 -40 -9 -8 -43 -37 -75 -65 -169 -141 -383 -345 -472 -452 -18 -21 -41 -47 -50 -58 -10 -11 -36 -42 -58 -70 -22 -27 -47 -56 -55 -65 -8 -9 -26 -31 -40 -49 -42 -56 -102 -126 -111 -129 -5 -2 -9 -13 -9 -23 0 -11 -13 -31 -29 -45 -16 -13 -39 -43 -51 -67 -11 -23 -25 -49 -30 -57 -5 -8 -11 -23 -14 -32 -3 -10 -9 -18 -13 -18 -5 0 -76 66 -158 148 -83 81 -179 172 -215 202 -36 30 -70 60 -76 65 -53 48 -139 121 -184 156 -30 23 -57 45 -60 49 -3 3 -21 16 -40 28 -19 11 -47 33 -62 47 -15 14 -30 25 -33 25 -8 0 -69 44 -73 53 -2 4 -8 7 -14 7 -6 0 -27 13 -47 29 -20 16 -54 39 -76 51 -22 12 -53 30 -70 41 -16 10 -37 22 -45 26 -8 4 -34 20 -56 35 -23 15 -47 28 -52 28 -6 0 -15 6 -19 14 -4 7 -24 22 -43 33 -33 18 -92 53 -135 81 -11 6 -31 17 -45 23 -13 5 -27 13 -30 17 -6 8 -108 61 -300 156 -74 37 -142 72 -150 77 -8 5 -22 12 -30 15 -8 3 -28 12 -43 20 -16 7 -34 14 -42 14 -7 0 -18 7 -25 15 -7 8 -24 15 -37 15 -14 0 -37 6 -51 13 -27 14 -73 35 -142 64 -19 8 -48 21 -63 29 -16 8 -35 14 -42 14 -7 0 -26 6 -42 14 -134 65 -145 66 -166 18 -9 -21 -17 -53 -17 -71 0 -17 -7 -48 -15 -68 -8 -19 -15 -47 -15 -62 -1 -14 -7 -37 -15 -51 -8 -14 -14 -43 -15 -65 0 -22 -5 -56 -11 -75 -10 -31 -29 -164 -46 -325 -3 -27 -10 -56 -15 -62 -6 -7 -14 -59 -18 -115 -5 -57 -13 -125 -19 -153 -5 -27 -12 -104 -15 -170 -3 -66 -10 -147 -16 -180 -12 -75 -12 -794 0 -855 5 -25 12 -94 16 -155 4 -60 13 -125 20 -144 8 -18 14 -46 14 -62 0 -16 6 -55 14 -87 8 -31 22 -102 31 -157 9 -55 22 -111 27 -125 6 -14 14 -41 18 -60 8 -37 24 -84 47 -137 7 -17 13 -36 13 -41 0 -6 6 -23 14 -39 8 -15 21 -44 30 -63 29 -67 57 -125 76 -155 10 -16 28 -48 40 -70 12 -22 35 -56 51 -75 17 -19 33 -39 37 -45 181 -239 279 -340 522 -537 36 -29 66 -56 68 -60 2 -5 8 -8 13 -8 8 0 157 -97 169 -110 3 -3 16 -11 30 -17 14 -7 48 -26 75 -42 28 -17 76 -42 107 -58 32 -15 58 -31 58 -35 0 -4 9 -8 19 -8 11 0 26 -7 35 -15 8 -8 20 -15 26 -15 11 0 48 -17 90 -41 8 -5 22 -12 30 -15 8 -3 28 -12 43 -20 16 -7 37 -14 47 -14 9 0 23 -7 30 -15 7 -8 20 -15 29 -15 10 0 26 -7 37 -15 10 -8 33 -15 50 -15 16 0 39 -7 50 -15 10 -8 29 -15 40 -15 12 0 27 -7 34 -15 7 -8 23 -15 37 -15 13 0 40 -7 60 -15 19 -8 43 -15 52 -15 9 0 28 -6 43 -14 15 -8 42 -17 60 -21 18 -3 42 -10 53 -14 56 -22 126 -41 151 -41 16 -1 40 -7 54 -15 14 -8 39 -14 55 -15 17 0 43 -7 59 -15 15 -8 43 -15 61 -15 17 0 54 -7 81 -15 27 -8 60 -15 72 -15 23 0 24 3 19 48 -3 26 -8 61 -12 77 -6 30 12 71 21 49 3 -6 16 -26 29 -44 l25 -34 0 52 c0 29 7 69 15 89 8 19 15 59 15 88 0 29 7 69 15 88 8 20 15 58 15 84 1 26 7 59 15 73 8 14 15 45 15 70 0 25 7 56 15 70 8 14 15 43 15 65 0 22 7 51 15 65 8 14 15 41 15 60 0 19 7 46 15 60 8 14 15 41 15 60 0 19 7 44 15 54 8 11 15 36 15 55 0 20 7 45 15 55 8 11 15 34 15 50 0 17 7 40 15 50 8 11 15 32 15 47 0 15 7 40 15 55 8 16 15 39 15 50 0 12 7 27 15 34 8 7 15 29 15 50 0 21 7 43 15 50 8 7 15 22 15 34 0 12 7 31 15 42 8 10 15 30 15 44 0 14 7 34 15 44 8 11 15 29 15 40 0 12 7 30 15 40 8 11 15 29 15 41 0 12 5 26 12 33 13 13 38 75 45 114 3 15 11 33 19 39 8 6 14 16 14 22 0 5 14 39 30 74 17 34 30 69 30 77 0 7 7 19 15 26 8 7 15 20 15 30 0 10 7 23 15 30 8 7 15 20 15 30 0 10 7 23 15 30 8 7 15 23 15 36 0 12 5 26 11 29 5 4 14 17 20 28 5 12 13 30 19 40 5 9 15 25 20 35 6 9 13 24 16 32 3 8 10 22 15 30 5 8 13 24 18 35 5 11 21 37 35 58 14 21 26 45 26 53 0 8 7 17 15 20 8 4 15 14 15 24 0 10 7 23 15 30 8 7 15 19 15 26 0 8 5 14 10 14 6 0 15 10 20 23 6 12 19 36 30 52 11 17 24 40 30 53 5 12 13 22 17 22 5 0 17 19 28 41 10 23 25 44 32 46 7 3 13 10 13 17 0 6 13 27 30 46 16 19 29 40 30 47 0 6 3 13 8 15 4 2 20 22 36 46 17 24 40 53 53 65 12 12 23 27 23 32 0 6 23 35 50 65 28 30 68 75 88 99 112 136 377 401 398 401 24 0 16 -55 -11 -84 -14 -15 -25 -30 -25 -33 0 -3 -13 -25 -30 -50 -16 -24 -30 -48 -30 -52 0 -5 -7 -14 -15 -21 -23 -19 -12 -22 21 -5 16 8 38 15 49 15 11 1 31 7 45 15 14 8 39 15 55 15 17 0 41 7 55 15 14 8 42 14 63 15 21 0 54 7 74 15 19 8 58 15 85 15 28 0 74 7 103 15 42 13 98 15 286 12 236 -3 357 -16 416 -42 17 -8 44 -15 60 -15 36 0 79 -41 69 -66 -5 -14 -15 -15 -64 -9 -141 19 -720 2 -802 -24 -19 -6 -54 -11 -78 -11 -23 0 -59 -7 -79 -15 -19 -8 -52 -15 -72 -15 -20 -1 -47 -7 -61 -15 -14 -8 -38 -15 -55 -15 -16 0 -39 -7 -49 -15 -11 -8 -30 -15 -42 -15 -12 0 -36 -7 -53 -15 -17 -8 -45 -22 -62 -30 -17 -8 -36 -15 -43 -15 -19 0 -86 -71 -86 -91 0 -10 -5 -21 -11 -24 -5 -4 -15 -17 -20 -28 -5 -12 -18 -35 -29 -52 -11 -16 -24 -40 -29 -52 -5 -11 -15 -24 -20 -28 -6 -3 -11 -15 -11 -26 0 -10 -4 -19 -9 -19 -5 0 -14 -12 -21 -27 -19 -47 -34 -73 -42 -73 -5 0 -8 -9 -8 -20 0 -11 -9 -28 -20 -37 -11 -10 -20 -25 -20 -34 0 -9 -7 -22 -15 -29 -8 -7 -15 -20 -15 -30 0 -10 -7 -23 -15 -30 -8 -7 -15 -20 -15 -30 0 -10 -7 -23 -15 -30 -8 -7 -15 -18 -15 -25 0 -7 -7 -18 -15 -25 -40 -33 -1 -67 41 -35 10 8 30 15 44 15 14 0 36 7 50 15 14 8 40 14 58 15 18 0 49 7 69 15 19 8 56 15 80 15 25 0 69 7 99 16 93 27 489 5 543 -30 8 -5 28 -12 45 -16 22 -4 31 -12 31 -25 0 -19 -10 -20 -280 -25 -189 -4 -289 -9 -308 -18 -16 -6 -53 -12 -83 -12 -30 0 -71 -7 -91 -15 -19 -8 -52 -15 -72 -15 -20 0 -45 -6 -56 -14 -11 -7 -36 -16 -55 -18 -39 -6 -91 -23 -132 -44 -14 -8 -32 -14 -39 -14 -19 0 -79 -73 -79 -96 0 -12 -7 -27 -15 -34 -8 -7 -15 -20 -15 -29 0 -9 -7 -25 -15 -35 -8 -11 -15 -27 -15 -37 0 -9 -7 -22 -15 -29 -8 -7 -15 -20 -15 -30 0 -10 -7 -23 -15 -30 -8 -7 -15 -21 -15 -30 0 -10 -6 -31 -14 -47 -14 -28 -37 -80 -64 -143 -8 -19 -21 -47 -29 -62 -7 -14 -13 -33 -13 -41 0 -9 -6 -28 -14 -44 -28 -56 -46 -104 -46 -122 0 -10 -6 -24 -14 -30 -8 -6 -16 -24 -19 -39 -6 -33 -25 -88 -43 -124 -8 -14 -14 -33 -14 -41 0 -8 -7 -28 -15 -43 -8 -16 -15 -38 -15 -49 0 -11 -7 -29 -15 -39 -8 -11 -15 -32 -15 -46 0 -14 -5 -31 -11 -37 -6 -6 -15 -29 -19 -50 -8 -36 -14 -56 -41 -135 -6 -18 -14 -49 -16 -68 -3 -19 -9 -40 -14 -45 -4 -6 -11 -31 -15 -55 -4 -25 -13 -54 -20 -65 -8 -11 -14 -38 -14 -60 0 -22 -7 -49 -15 -59 -8 -11 -15 -38 -15 -61 0 -23 -7 -50 -15 -61 -8 -10 -15 -40 -15 -65 0 -26 -7 -63 -15 -82 -8 -20 -15 -54 -15 -75 0 -22 -7 -56 -15 -75 -8 -21 -15 -67 -15 -106 0 -39 -6 -88 -14 -108 -16 -43 -30 -190 -18 -196 24 -14 262 31 286 54 6 5 31 9 56 9 25 0 55 7 66 15 10 8 35 15 55 15 19 0 44 7 55 15 10 8 33 15 49 15 17 0 43 7 59 15 15 8 38 15 50 15 11 0 34 7 50 15 15 8 38 15 50 15 11 1 32 7 46 15 14 8 37 14 51 15 15 0 32 7 39 15 7 8 27 15 44 15 18 0 37 5 44 12 13 13 75 38 114 45 15 3 33 11 39 19 6 8 21 14 33 14 12 0 31 7 42 15 10 8 29 15 40 15 12 0 27 7 34 15 7 8 19 15 27 15 13 0 48 15 93 41 8 5 22 12 30 15 44 17 165 79 168 86 2 4 12 8 22 8 9 0 23 7 30 15 7 8 21 15 32 15 10 0 21 7 24 15 4 8 14 15 24 15 10 0 23 7 30 15 7 8 20 15 30 15 10 0 23 7 30 15 7 8 18 15 25 15 6 0 31 14 53 30 23 17 49 30 57 30 8 0 15 4 15 9 0 5 19 20 43 34 23 14 58 40 77 57 51 44 58 50 67 50 5 0 23 13 41 29 17 16 60 51 94 77 34 27 82 67 107 91 25 23 50 43 55 43 12 0 176 163 176 175 0 6 20 31 44 56 24 26 72 85 107 130 34 46 65 86 68 89 13 11 71 99 81 121 6 13 19 38 29 54 32 50 121 226 121 240 0 7 7 18 15 25 8 7 15 21 15 31 0 11 4 27 9 37 31 58 51 105 51 120 0 9 7 26 15 36 8 11 15 31 15 45 1 14 7 37 15 51 8 14 15 43 15 65 0 22 7 51 15 65 8 14 14 47 15 73 0 27 5 58 12 70 7 12 16 51 19 87 14 124 30 235 41 275 6 22 14 121 18 220 4 99 13 241 19 316 10 105 10 169 1 285 -7 82 -15 248 -19 369 -4 129 -11 228 -17 240 -7 11 -14 71 -18 133 -4 62 -11 124 -16 138 -6 14 -10 58 -10 99 0 40 -6 95 -14 121 -15 50 -31 151 -45 284 -4 41 -13 85 -19 97 -7 12 -12 40 -12 63 0 22 -7 57 -15 77 -8 19 -15 56 -15 82 0 25 -7 59 -15 75 -8 15 -15 47 -15 70 0 22 -7 54 -15 70 -8 15 -15 45 -15 65 0 20 -7 49 -15 65 -8 15 -15 42 -15 58 0 62 -41 87 -86 53z m-4051 -2232 c13 -8 -4 -23 -26 -23 -12 0 -39 -9 -60 -20 -20 -11 -43 -20 -49 -20 -22 0 -138 -63 -233 -125 -92 -60 -295 -249 -315 -293 -10 -22 1 -34 143 -175 84 -84 171 -173 193 -198 21 -25 64 -74 94 -109 96 -110 120 -139 120 -144 0 -3 14 -20 30 -38 17 -18 30 -37 30 -44 0 -6 13 -24 30 -40 16 -16 30 -35 30 -41 0 -7 4 -13 9 -13 5 0 13 -10 17 -22 6 -20 60 -105 75 -118 3 -3 22 -33 43 -68 21 -35 45 -66 52 -69 11 -4 14 -55 14 -274 0 -257 -1 -269 -19 -269 -12 0 -21 9 -25 26 -11 43 -37 74 -61 74 -27 0 -189 -52 -272 -87 -17 -7 -36 -13 -42 -13 -6 0 -25 -6 -43 -14 -18 -8 -49 -21 -70 -30 -20 -9 -39 -16 -42 -16 -7 0 -107 -46 -216 -100 -98 -48 -179 -92 -263 -144 -37 -22 -76 -45 -85 -51 -9 -5 -52 -34 -95 -62 -80 -54 -92 -60 -102 -44 -7 12 90 108 170 169 33 25 62 49 65 52 11 15 206 147 251 171 58 31 306 153 334 164 17 7 47 20 68 29 21 9 46 16 55 16 10 0 22 4 28 10 9 9 33 15 159 41 28 6 54 14 58 18 5 5 -5 32 -21 62 -16 30 -38 70 -48 89 -11 19 -25 40 -31 48 -7 7 -13 17 -13 22 0 5 -25 51 -56 102 -31 50 -60 101 -65 113 -5 11 -18 34 -29 50 -11 17 -23 38 -26 48 -4 9 -10 17 -14 17 -5 0 -12 9 -15 21 -4 11 -25 48 -48 83 -23 34 -46 69 -52 78 -14 23 -103 156 -134 201 -14 21 -30 46 -36 55 -5 9 -29 42 -52 74 -24 31 -43 61 -43 66 0 6 -4 12 -9 14 -4 2 -26 28 -47 59 -40 58 -59 83 -129 173 -22 28 -48 62 -57 76 -9 14 -30 40 -47 59 -17 19 -31 40 -31 47 0 20 17 25 30 9 7 -8 18 -15 24 -15 6 -1 27 -14 46 -30 19 -17 39 -30 45 -30 6 0 42 30 80 68 85 82 158 142 173 142 6 0 12 4 14 8 7 18 239 142 265 142 6 0 24 7 39 15 16 8 38 15 49 15 11 0 38 7 60 15 36 13 104 12 128 -2z"/> </g> </svg> 